<svg xmlns="http://www.w3.org/2000/svg" id="ic_content_copy" width="15" height="15" viewBox="0 0 15 15">
    <defs>
        <style>
            .cls-1{fill:none}.cls-2{fill:#47cae2}
        </style>
    </defs>
    <g id="Icon_24px" data-name="Icon 24px">
        <path id="Shape" d="M0 0h15v15H0z" class="cls-1"/>
        <path id="Shape-2" d="M10.625 13.75H3.75A1.252 1.252 0 0 1 2.5 12.5V3.75A1.252 1.252 0 0 1 3.75 2.5h6.875a1.251 1.251 0 0 1 1.249 1.25v8.75a1.251 1.251 0 0 1-1.249 1.25zm-6.875-10v8.75h6.875V3.75zM1.25 10H0V1.25A1.252 1.252 0 0 1 1.25 0h7.5v1.25h-7.5V10z" class="cls-2" data-name="Shape" transform="translate(1.25 .625)"/>
    </g>
</svg>
