<svg xmlns="http://www.w3.org/2000/svg" width="28" height="28" viewBox="0 0 28 28">
    <defs>
        <style>
            .cls-1{fill:#1a936f}
        </style>
    </defs>
    <g id="iconfinder_outlined_account_group_4280504" transform="translate(-2 -2)">
        <path id="Path_835" d="M20 19a5 5 0 1 0-5-5 5 5 0 0 0 5 5zm0-8a3 3 0 1 1-3 3 3 3 0 0 1 3-3z" class="cls-1" data-name="Path 835"/>
        <path id="Path_836" d="M8.94 10a4 4 0 1 0-4-4 4 4 0 0 0 4 4zm0-6a2 2 0 1 1-2 2 2 2 0 0 1 2-2z" class="cls-1" data-name="Path 836"/>
        <path id="Path_837" d="M25 20H15a5 5 0 0 0-5 5v5h2v-5a3 3 0 0 1 3-3h10a3 3 0 0 1 3 3v5h2v-5a5 5 0 0 0-5-5z" class="cls-1" data-name="Path 837"/>
        <path id="Path_838" d="M13 11H6a4 4 0 0 0-4 4v4h2v-4a2 2 0 0 1 2-2h7z" class="cls-1" data-name="Path 838"/>
    </g>
</svg>
