<svg xmlns="http://www.w3.org/2000/svg" width="26.461" height="13.631" viewBox="0 0 26.461 13.631">
    <defs>
        <style>
            .cls-1,.cls-2{fill:#fff}.cls-2{fill-rule:evenodd}
        </style>
    </defs>
    <g id="tank_truck" transform="translate(.389 -5.369)">
        <g id="Group_91" data-name="Group 91" transform="translate(-.389 5.369)">
            <g id="Group_90" data-name="Group 90">
                <path id="Path_758" d="M4375.827 3276v4.348H4375V3276z" class="cls-1" data-name="Path 758" transform="translate(-4356.799 -3269.895)"/>
                <path id="Path_759" d="M857.138 2095h11.692a3.141 3.141 0 0 1 3.138 3.138v.693a3.142 3.142 0 0 1-3.138 3.138h-11.692a3.142 3.142 0 0 1-3.138-3.139v-.693a3.141 3.141 0 0 1 3.138-3.138z" class="cls-1" data-name="Path 759" transform="translate(-854 -2095)"/>
                <path id="Path_760" d="M1637.7 3812.7a2.376 2.376 0 1 1 1.68 4.058 2.376 2.376 0 0 1-1.68-4.058zm1.68 1.086a.594.594 0 1 0 .594.594.594.594 0 0 0-.596-.596z" class="cls-1" data-name="Path 760" transform="translate(-1632.953 -3803.125)"/>
                <path id="Path_761" d="M1264.489 3526.484h-1.075a.415.415 0 0 1-.414-.414.42.42 0 0 1 .336-.409v-2.248a.415.415 0 0 1 .414-.414h14.107a.415.415 0 0 1 .414.414v2.233h1.742l-.01.03a.092.092 0 0 0-.01.026v.005a.073.073 0 0 0-.01.03v.006c-.01.021-.016.041-.026.057l-.01.031-.01.031c-.005.011-.005.021-.01.031-.005.011-.005.021-.01.031l-.01.031c-.005.01-.005.021-.01.031l-.01.031v.031l-.005.026v.005l-.005.03v.005l-.005.026v.011l-.005.026c0 .01-.005.021-.005.031l-.005.031-.005.026v.011l-.005.026-.005.026v.005l-.005.026v.005l-.005.031-.005.031v.011l-1.628-.005v.005H1270.125a2.792 2.792 0 0 0-5.531.005h-.062v-.005z" class="cls-2" data-name="Path 761" transform="translate(-1260.886 -3515.618)"/>
                <path id="Path_762" d="M4381.867 2634.338a.414.414 0 0 0 0-.827h-.222v-2.476a1.354 1.354 0 0 0-.62-1.277 3.759 3.759 0 0 0-3.753-3.753h-2.642a.624.624 0 0 0-.444.186.631.631 0 0 0-.187.445v6.88h.827v.021a2.739 2.739 0 0 1 .662-1.049 2.794 2.794 0 0 1 4.766 1.856h1.613zm-2.708-5.526h-3.3v-1.68h1.5a1.808 1.808 0 0 1 1.8 1.68z" class="cls-2" data-name="Path 762" transform="translate(-4355.804 -2623.255)"/>
                <path id="Path_763" d="M4586.378 3802.716a.662.662 0 1 1-.662.662.659.659 0 0 1 .662-.662zm2.377.662a2.376 2.376 0 0 0-4.058-1.68 2.378 2.378 0 0 0 1.681 4.058 2.383 2.383 0 0 0 2.377-2.378z" class="cls-2" data-name="Path 763" transform="translate(-4564.719 -3792.181)"/>
            </g>
        </g>
    </g>
</svg>
