<svg xmlns="http://www.w3.org/2000/svg" width="28.056" height="14.453" viewBox="0 0 28.056 14.453">
    <defs>
        <style>
            .cls-1,.cls-2{fill:#1a936f}.cls-2{fill-rule:evenodd}
        </style>
    </defs>
    <g id="tank_truck" transform="translate(-305.288)">
        <g id="Group_91" data-name="Group 91" transform="translate(305.288)">
            <g id="Group_90" data-name="Group 90">
                <path id="Path_758" d="M4375.876 3276v4.609H4375V3276z" class="cls-1" data-name="Path 758" transform="translate(-4355.703 -3269.527)"/>
                <path id="Path_759" d="M857.327 2095h12.4a3.33 3.33 0 0 1 3.327 3.327v.734a3.331 3.331 0 0 1-3.327 3.327h-12.4a3.331 3.331 0 0 1-3.327-3.327v-.734a3.33 3.33 0 0 1 3.327-3.327z" class="cls-1" data-name="Path 759" transform="translate(-854 -2095)"/>
                <path id="Path_760" d="M1637.74 3812.74a2.514 2.514 0 1 1-.74 1.782 2.516 2.516 0 0 1 .74-1.782zm1.781 1.151a.63.63 0 1 0 .63.63.63.63 0 0 0-.63-.63z" class="cls-1" data-name="Path 760" transform="translate(-1632.709 -3802.59)"/>
                <path id="Path_761" d="M1264.578 3526.694h-1.14a.44.44 0 0 1-.438-.439.445.445 0 0 1 .356-.433V3523.437a.44.44 0 0 1 .438-.438h14.957a.44.44 0 0 1 .439.438v2.368h1.847l-.011.033a.092.092 0 0 0-.011.027v.006a.076.076 0 0 0-.011.032v.006c-.011.022-.017.044-.027.061l-.011.033-.011.033c-.006.011-.006.021-.011.032-.005.012-.005.022-.011.033l-.011.033c-.006.011-.006.022-.011.033l-.011.033v.005l-.005.027v.005l-.006.028v.005l-.005.033v.005l-.005.028v.011l-.005.027v.006c0 .011-.006.021-.006.033l-.005.033v.005l-.006.028v.011l-.005.027v.005l-.005.027v.011l-.005.027v.006l-.006.032-.005.033v.011l-1.726-.005v.005h-1.962l-4.467.005v.005h-2.132a2.96 2.96 0 0 0-5.865.005h-.066v-.005z" class="cls-2" data-name="Path 761" transform="translate(-1260.758 -3515.174)"/>
                <path id="Path_762" d="M4382.341 2634.84a.439.439 0 0 0 0-.877h-.235v-2.625a1.436 1.436 0 0 0-.658-1.354 3.986 3.986 0 0 0-3.979-3.979h-2.8a.66.66 0 0 0-.471.2.669.669 0 0 0-.2.471v7.295h.876v.022a2.9 2.9 0 0 1 .7-1.112 2.963 2.963 0 0 1 5.053 1.967h1.71zm-2.871-5.858h-3.5v-1.782h1.59a1.919 1.919 0 0 1 1.908 1.782z" class="cls-2" data-name="Path 762" transform="translate(-4354.708 -2623.09)"/>
                <path id="Path_763" d="M4586.521 3802.82a.7.7 0 1 1-.7.7.7.7 0 0 1 .7-.7zm2.521.7a2.519 2.519 0 0 0-4.3-1.781 2.519 2.519 0 1 0 4.3 1.781z" class="cls-2" data-name="Path 763" transform="translate(-4563.557 -3791.65)"/>
            </g>
        </g>
    </g>
</svg>
